<?xml version="1.0" encoding="UTF-8" standalone="no"?>
<!-- Generator: Adobe Illustrator 20.0.0, SVG Export Plug-In . SVG Version: 6.00 Build 0)  -->

<svg
   xmlns:dc="http://purl.org/dc/elements/1.1/"
   xmlns:cc="http://creativecommons.org/ns#"
   xmlns:rdf="http://www.w3.org/1999/02/22-rdf-syntax-ns#"
   xmlns:svg="http://www.w3.org/2000/svg"
   xmlns="http://www.w3.org/2000/svg"
   xmlns:sodipodi="http://sodipodi.sourceforge.net/DTD/sodipodi-0.dtd"
   xmlns:inkscape="http://www.inkscape.org/namespaces/inkscape"
   version="1.1"
   id="White"
   x="0px"
   y="0px"
   viewBox="0 0 25 25"
   xml:space="preserve"
   sodipodi:docname="Twitter_Social_Icon_Circle_White.svg"
   width="25"
   height="25"
   inkscape:version="0.92.4 (5da689c313, 2019-01-14)"><metadata
   id="metadata835"><rdf:RDF><cc:Work
       rdf:about=""><dc:format>image/svg+xml</dc:format><dc:type
         rdf:resource="http://purl.org/dc/dcmitype/StillImage" /></cc:Work></rdf:RDF></metadata><defs
   id="defs833" /><sodipodi:namedview
   pagecolor="#ffffff"
   bordercolor="#666666"
   borderopacity="1"
   objecttolerance="10"
   gridtolerance="10"
   guidetolerance="10"
   inkscape:pageopacity="0"
   inkscape:pageshadow="2"
   inkscape:window-width="1920"
   inkscape:window-height="1001"
   id="namedview831"
   showgrid="false"
   inkscape:zoom="2.02"
   inkscape:cx="200"
   inkscape:cy="120.79208"
   inkscape:window-x="-9"
   inkscape:window-y="-9"
   inkscape:window-maximized="1"
   inkscape:current-layer="White" />
<style
   type="text/css"
   id="style826">
	.st0{fill:#FFFFFF;}
</style>
<path
   class="st0"
   d="M 25,12.5 C 25,19.40625 19.40625,25 12.5,25 5.59375,25 0,19.40625 0,12.5 0,5.59375 5.59375,0 12.5,0 19.40625,0 25,5.59375 25,12.5 Z m -14.7875,6.59375 c 5.54375,0 8.575,-4.59375 8.575,-8.575 0,-0.13125 0,-0.2625 -0.0063,-0.3875 0.5875,-0.425 1.1,-0.95625 1.50625,-1.5625 -0.5375,0.2375 -1.11875,0.4 -1.73125,0.475 0.625,-0.375 1.1,-0.9625 1.325,-1.66875 -0.58125,0.34375 -1.225,0.59375 -1.9125,0.73125 -0.55,-0.5875 -1.33125,-0.95 -2.2,-0.95 -1.6625,0 -3.0125,1.35 -3.0125,3.0125 0,0.2375 0.025,0.46875 0.08125,0.6875 -2.50625,-0.125 -4.725,-1.325 -6.2125,-3.15 C 6.3687,8.15 6.2187,8.66875 6.2187,9.21875 c 0,1.04375 0.53125,1.96875 1.34375,2.50625 -0.49375,-0.0125 -0.95625,-0.15 -1.3625,-0.375 0,0.0125 0,0.025 0,0.0375 0,1.4625 1.0375,2.675 2.41875,2.95625 C 8.3687,14.41255 8.09995,14.45 7.82495,14.45 7.6312,14.45 7.4437,14.4312 7.2562,14.3938 c 0.38125,1.2 1.49375,2.06875 2.8125,2.09375 -1.03125,0.80625 -2.33125,1.2875 -3.74375,1.2875 -0.24375,0 -0.48125,-0.0125 -0.71875,-0.0437 1.31875,0.8625 2.90625,1.3625 4.60625,1.3625"
   id="path828"
   style="fill:#000000;fill-opacity:1;stroke-width:0.0625"
   inkscape:connector-curvature="0" />
</svg>